<svg width="22" height="22" viewBox="0 0 22 22" fill="none" xmlns="http://www.w3.org/2000/svg">
<path d="M15.0562 15.8125C14.9281 15.6837 14.8563 15.5095 14.8563 15.3278C14.8563 15.1462 14.9281 14.972 15.0562 14.8431L18.2187 11.6875H2.02806C1.84572 11.6875 1.67085 11.6151 1.54192 11.4862C1.41299 11.3572 1.34056 11.1824 1.34056 11C1.34056 10.8177 1.41299 10.6428 1.54192 10.5139C1.67085 10.3849 1.84572 10.3125 2.02806 10.3125H18.1981L15.0562 7.17064C14.9258 7.04118 14.8522 6.86523 14.8516 6.68151C14.8509 6.49778 14.9233 6.32132 15.0527 6.19095C15.1822 6.06058 15.3582 5.98698 15.5419 5.98633C15.7256 5.98569 15.9021 6.05805 16.0324 6.18751L20.4049 10.5669C20.5204 10.6828 20.5852 10.8398 20.5852 11.0035C20.5852 11.1671 20.5204 11.3241 20.4049 11.44L16.0324 15.8125C15.9685 15.877 15.8925 15.9281 15.8087 15.963C15.7249 15.9979 15.6351 16.0159 15.5443 16.0159C15.4536 16.0159 15.3637 15.9979 15.2799 15.963C15.1961 15.9281 15.1201 15.877 15.0562 15.8125Z" fill="#FC8019"/>
</svg>
