<svg width="23" height="23" viewBox="0 0 23 23" fill="none" xmlns="http://www.w3.org/2000/svg">
<g id="Frame">
<path id="Vector" d="M17.25 5.1885L18.8859 3.55262L17.5308 2.19754L16.0329 3.69446C14.8379 2.59525 13.248 1.91675 11.5 1.91675C9.752 1.91675 8.16212 2.59525 6.96708 3.69446L5.46921 2.19754L4.11413 3.55262L5.75 5.1885C5.1234 6.22531 4.79202 7.41363 4.79167 8.62508H2.875V10.5417H4.79167V12.4584H2.875V14.3751H4.79167C4.79167 18.0742 7.80179 21.0834 11.5 21.0834C15.1982 21.0834 18.2083 18.0742 18.2083 14.3751H20.125V12.4584H18.2083V10.5417H20.125V8.62508H18.2083C18.208 7.41363 17.8766 6.22531 17.25 5.1885ZM14.375 14.3751H8.625V12.4584H14.375V14.3751ZM14.375 10.5417H8.625V8.62508H14.375V10.5417Z" fill="#FC9C4C"/>
</g>
</svg>
