<svg width="22" height="22" viewBox="0 0 22 22" fill="none" xmlns="http://www.w3.org/2000/svg">
<g id="Frame">
<path id="Vector" d="M11 15.125C10.2897 15.125 9.57945 14.892 8.97359 14.4199L0 7.44219V17.1875C0 18.3262 0.923398 19.25 2.0625 19.25H19.9375C21.0766 19.25 22 18.3266 22 17.1875V7.44219L13.0281 14.4246C12.4223 14.893 11.709 15.125 11 15.125ZM0.699961 6.24336L9.81793 13.3375C10.5136 13.8789 11.4881 13.8789 12.1838 13.3375L21.3018 6.24336C21.7035 5.89961 22 5.37109 22 4.8125C22 3.6734 21.0762 2.75 19.9375 2.75H2.0625C0.923398 2.75 0 3.6734 0 4.8125C0 5.37109 0.258242 5.89961 0.699961 6.24336Z" fill="#FC9C4C"/>
</g>
</svg>
