<svg width="25" height="25" viewBox="0 0 25 25" fill="none" xmlns="http://www.w3.org/2000/svg">
<g id="Delivery_x5F_service">
<g id="Group">
<g id="Group_2">
<g id="Group_3">
<path id="Vector" d="M12.1126 5.9084C12.1126 5.18394 11.5232 4.59448 10.7987 4.59448C10.0744 4.59448 9.48523 5.18389 9.48523 5.9084C9.48523 6.63291 10.0744 7.22231 10.7987 7.22231C11.5232 7.22231 12.1126 6.63291 12.1126 5.9084ZM9.97356 5.9084C9.97356 5.45317 10.3437 5.08276 10.7988 5.08276C11.254 5.08276 11.6244 5.45312 11.6244 5.9084C11.6244 6.36367 11.254 6.73403 10.7988 6.73403C10.3437 6.73403 9.97356 6.36367 9.97356 5.9084Z" fill="black"/>
<path id="Vector_2" d="M10.9815 9.70493C11.2073 9.4498 13.1882 7.17676 13.1882 5.9355C13.1882 4.61816 12.1162 3.54639 10.7987 3.54639C9.48132 3.54639 8.40955 4.61812 8.40955 5.9355C8.40955 7.17671 10.39 9.4498 10.6158 9.70488L10.7986 9.91138L10.9815 9.70493ZM8.89788 5.93555C8.89788 4.88745 9.75056 4.03472 10.7987 4.03472C11.847 4.03472 12.7 4.8874 12.7 5.93555C12.7 6.7478 11.4612 8.38403 10.7987 9.16934C10.1364 8.38418 8.89788 6.74839 8.89788 5.93555Z" fill="black"/>
</g>
<g id="Group_4">
<path id="Vector_3" d="M4.58455 17.3203H2.23132V17.8086H4.58455V17.3203Z" fill="black"/>
<path id="Vector_4" d="M1.66243 17.3203H0.893188V17.8086H1.66243V17.3203Z" fill="black"/>
<path id="Vector_5" d="M4.5845 18.6541H3.16418V19.1423H4.5845V18.6541Z" fill="black"/>
</g>
<g id="Group_5">
<path id="Vector_6" d="M9.42275 13.678H8.17163V14.1663H9.42275V13.678Z" fill="black"/>
<path id="Vector_7" d="M2.0907 8.72798V13.3768H2.62556H4.00881L6.58728 15.3167C6.57957 15.3845 6.57322 15.4532 6.56863 15.523C5.8322 16.163 5.37664 17.0414 5.37664 18.0096V19.034H6.26282C6.33557 19.8308 6.76052 20.5268 7.38035 20.9653H3.96018V21.4536H13.0422V20.9653H10.4486C10.7583 20.7462 11.0193 20.4629 11.2121 20.1347H12.8522L13.6345 19.731C13.8502 19.8483 14.0972 19.915 14.3594 19.915H17.894L18.0094 19.9149L18.0826 19.8259C18.0868 19.8208 18.1691 19.7227 18.3211 19.5664C18.5138 20.1482 18.9029 20.6389 19.4044 20.9653H15.2883V21.4536H24.1069V20.9653H22.3026C23.0315 20.4896 23.5146 19.6674 23.5146 18.7341C23.5146 18.1428 23.3156 17.5709 22.959 17.1076C23.2139 17.0749 23.4761 17.0569 23.7453 17.0569C23.9499 17.0569 24.0177 16.9174 24.0336 16.8747C24.115 16.6556 23.9217 16.4888 23.629 16.2364C23.5631 16.1796 23.5009 16.126 23.4648 16.0897C22.8772 15.5016 22.1373 15.1223 21.3346 14.9862L19.3337 10.083H19.9368V9.85405H19.9869C20.4165 9.85405 20.7659 9.50464 20.7659 9.07515V9.0584C20.7659 8.62891 20.4165 8.27944 19.9869 8.27944H19.9368V8.05054H18.248C17.6871 8.05054 17.2307 8.50688 17.2307 9.06777V9.54043C17.2307 9.55874 17.2317 9.57676 17.2335 9.59458H16.936L15.8974 8.55596H14.6776V9.04424H15.6951L16.7337 10.0829H17.7134L17.1714 11.7252L17.9032 16.0601C17.5434 16.4114 17.2493 16.8311 17.043 17.2996H14.2713C14.1398 17.03 14.0333 16.7494 13.9531 16.4589C13.5929 15.1537 13.868 14.0009 14.1022 13.3583C14.3569 13.2941 14.5462 13.0638 14.5462 12.7895C14.5462 11.9899 13.8957 11.3394 13.0962 11.3394H8.07039C7.50872 11.3394 7.05173 11.7963 7.05173 12.3581C7.05173 12.5524 7.10745 12.7337 7.20237 12.8884H6.73948V8.72798H2.0907ZM2.57898 12.8885V9.21626H6.2512V12.8885H2.62556H2.57898ZM5.86492 18.0095C5.86492 16.3258 7.49788 14.956 9.50505 14.956H10.4275C11.7555 14.956 12.836 15.8567 12.836 16.964V18.1451V18.3893V18.5457H11.567C11.4433 17.191 10.3011 16.1262 8.91487 16.1262C7.52839 16.1262 6.38596 17.191 6.26233 18.5457H5.86497L5.86492 18.0095ZM6.75354 18.5457C6.87532 17.4607 7.79792 16.6145 8.91482 16.6145C10.0315 16.6145 10.9539 17.4607 11.0757 18.5457H6.75354ZM9.63474 19.034C9.53269 19.334 9.24885 19.5506 8.91482 19.5506C8.58059 19.5506 8.29661 19.3339 8.19451 19.034H9.63474ZM8.91433 20.9652C7.79763 20.9652 6.87522 20.1189 6.75349 19.034H7.68938C7.8033 19.6062 8.30935 20.0389 8.91482 20.0389C9.52004 20.0389 10.026 19.6062 10.1398 19.034H11.0757C11.0515 19.2491 10.9961 19.4548 10.9137 19.6464H10.0483V20.1347H10.6223C10.2236 20.6399 9.60642 20.9652 8.91433 20.9652ZM12.7337 19.6464H11.4359C11.5023 19.4513 11.5469 19.2463 11.5663 19.034H12.9791C13.0411 19.1665 13.1215 19.2885 13.2169 19.397L12.7337 19.6464ZM23.0263 18.734C23.0263 19.9333 22.0505 20.9089 20.851 20.9089C19.8234 20.9089 18.9305 20.1746 18.722 19.1809C18.9639 18.9624 19.2703 18.7093 19.6333 18.4555C19.6128 18.5451 19.6017 18.6382 19.6017 18.7339C19.6017 19.4228 20.1621 19.9832 20.851 19.9832C21.5398 19.9832 22.1002 19.4228 22.1002 18.7339C22.1002 18.1921 21.7534 17.7299 21.2702 17.5572C21.6233 17.4139 22 17.2921 22.3982 17.2048C22.7987 17.6113 23.0263 18.1618 23.0263 18.734ZM20.3038 18.2062L20.6341 18.8459L21.0679 18.6219L20.7377 17.9823C20.7748 17.9767 20.8124 17.9729 20.851 17.9729C21.2706 17.9729 21.6119 18.3143 21.6119 18.7339C21.6119 19.1536 21.2706 19.4949 20.851 19.4949C20.4313 19.4949 20.09 19.1536 20.09 18.7339C20.09 18.5291 20.1717 18.3432 20.3038 18.2062ZM19.987 8.76772C20.1473 8.76772 20.2777 8.8981 20.2777 9.0584V9.07515C20.2777 9.2354 20.1473 9.36577 19.987 9.36577H19.9369V8.76772H19.987ZM17.7191 9.54048V9.06782C17.7191 8.77612 17.9563 8.53887 18.248 8.53887H19.4486V9.59468H18.2431H17.7732C17.7433 9.59463 17.7191 9.57031 17.7191 9.54048ZM17.6731 11.7633L18.2275 10.0832H18.8065L20.7851 14.9319C20.7454 14.9308 20.7059 14.929 20.6661 14.929C19.8028 14.929 18.9949 15.2123 18.3366 15.6939L17.6731 11.7633ZM20.6661 15.4172C21.5926 15.4172 22.4638 15.7786 23.1192 16.4347C23.1626 16.4781 23.2217 16.5297 23.2852 16.5847C21.6187 16.7008 20.2487 17.4254 19.3653 18.0416C18.5255 18.6272 17.9759 19.2085 17.7823 19.4267H14.3594C13.8733 19.4267 13.4645 19.0892 13.3538 18.6357H15.1867L15.1848 18.6333L17.2005 18.6332L17.229 18.4217C17.4603 16.7089 18.938 15.4172 20.6661 15.4172ZM16.8656 17.7879C16.8317 17.9047 16.8028 18.0237 16.7796 18.145L14.7949 18.1451C14.706 18.029 14.6229 17.9098 14.5452 17.7879H16.8656V17.7879ZM14.1948 18.1451L13.3242 18.1451V16.964C13.3242 15.5875 12.0247 14.4677 10.4274 14.4677H9.50501C8.61155 14.4677 7.7842 14.7132 7.10779 15.1287C7.24924 14.3223 7.60852 13.6971 7.82717 13.3769H13.5794C13.3425 14.1042 13.1198 15.2748 13.4825 16.5888C13.6354 17.143 13.8744 17.6646 14.1948 18.1451ZM8.07039 11.8277H13.0962C13.6265 11.8277 14.058 12.2592 14.058 12.7895C14.058 12.844 14.0136 12.8885 13.959 12.8885H8.07039C7.77795 12.8885 7.54001 12.6505 7.54001 12.3581C7.54001 12.0657 7.77795 11.8277 8.07039 11.8277ZM7.24978 13.3768C7.0511 13.7141 6.82004 14.195 6.68186 14.7768L4.82102 13.3768H6.73948H7.24978Z" fill="black"/>
<path id="Vector_8" d="M5.81562 9.79834H4.41504V10.2866H5.81562V9.79834Z" fill="black"/>
<path id="Vector_9" d="M14.5722 20.9653H13.7263V21.4536H14.5722V20.9653Z" fill="black"/>
<path id="Vector_10" d="M3.39871 20.9653H2.62561V21.4536H3.39871V20.9653Z" fill="black"/>
</g>
</g>
</g>
</g>
</svg>
