<svg width="38" height="38" viewBox="0 0 38 38" fill="none" xmlns="http://www.w3.org/2000/svg">
<path d="M15.403 18.1303C15.4902 18.1289 15.5792 18.1281 15.6702 18.1281C16.0852 18.1281 16.5655 18.1442 17.087 18.18C17.1058 18.1814 17.125 18.1828 17.1439 18.1842C17.1828 18.187 17.2216 18.1897 17.261 18.1927C18.5559 18.2908 20.0802 18.5093 21.4787 18.9014C23.812 19.5555 25.0872 20.4809 25.2691 21.652C25.2691 21.6526 25.2694 21.6532 25.2696 21.6537C25.2703 21.6585 25.2706 21.6629 25.2713 21.6677C25.2761 21.7005 25.2807 21.733 25.2842 21.7651C26.6576 20.7612 28.5532 19.7361 30.1575 19.2616C30.1668 19.259 30.176 19.2564 30.1852 19.2537C30.2304 19.2404 30.2756 19.2274 30.3205 19.2151C30.3567 19.205 30.3925 19.1957 30.4284 19.1863C30.4471 19.1815 30.466 19.1761 30.4846 19.1715C30.5401 19.1574 30.5952 19.1439 30.6497 19.1313C29.7462 17.3385 26.4165 16.0273 22.6214 16.0273C19.6198 16.0274 16.8589 16.8512 15.403 18.1303Z" fill="#9AA2AB"/>
<path d="M10.3066 25.1023C9.94445 24.4716 9.55742 23.8317 9.19284 23.2694C8.73157 22.5579 8.30654 21.9708 8.01437 21.6845C7.59152 21.2693 7.3323 21.0842 7.17377 21.0842C7.14459 21.0842 7.09555 21.0893 7.00823 21.1337C6.28082 21.5016 4.46576 22.7914 4.29568 23.1571C4.20137 23.3599 4.26098 23.5359 4.40469 23.9144C4.47941 24.1113 4.56413 24.3346 4.63018 24.6047C4.93067 25.8324 4.87015 27.272 4.81159 28.6642C4.75135 30.095 4.69454 31.4464 5.02407 32.4362C5.03729 32.4761 5.05374 32.5254 5.20213 32.5254C5.4032 32.5254 5.70195 32.4217 5.98194 32.2547C6.34848 32.0352 7.05224 31.6905 7.86717 31.2915C8.72087 30.8735 9.68853 30.3996 10.4725 29.9693C11.6821 29.3054 11.8498 29.0689 11.871 29.0281C11.987 28.7651 11.9187 28.3262 11.667 27.7261C11.414 27.1216 10.893 26.1239 10.3066 25.1023ZM8.37532 28.8801C7.98254 28.9253 7.62804 28.6369 7.58326 28.2354C7.53897 27.8337 7.82156 27.4708 8.2144 27.4257C8.60724 27.3804 8.96168 27.6688 9.00653 28.0703C9.05081 28.4719 8.76823 28.8349 8.37532 28.8801Z" fill="#9AA2AB"/>
<path d="M33.7519 20.8569C33.6902 19.9907 32.4568 19.6763 31.6429 19.6763C31.5046 19.6763 31.3754 19.6846 31.2589 19.7012C31.2088 19.7083 31.1577 19.7167 31.1062 19.7257C31.0879 19.7289 31.0695 19.7323 31.0511 19.7357C31.0111 19.7431 30.9706 19.751 30.9298 19.7594C30.9084 19.7638 30.8869 19.7685 30.8653 19.7732C30.8282 19.7812 30.7908 19.7897 30.7531 19.7986C30.7253 19.8053 30.6973 19.8121 30.6691 19.8191C30.6385 19.8268 30.6077 19.8347 30.5767 19.8429C30.5393 19.8528 30.5017 19.8629 30.4637 19.8736C30.4429 19.8794 30.4219 19.8855 30.401 19.8915C30.3511 19.9059 30.3009 19.9207 30.2504 19.9364C30.2424 19.9389 30.2343 19.9414 30.2262 19.9439C28.5461 20.4683 26.4962 21.6356 25.2277 22.6476C25.1972 22.672 25.1679 22.696 25.1384 22.7202C25.0524 22.8931 24.9428 23.0256 24.8369 23.1234C24.39 23.5363 23.6614 23.6918 22.8057 23.6918C21.4038 23.6919 19.6607 23.2744 18.2573 22.8876C18.1661 22.8625 18.0882 22.841 18.0256 22.8242C17.8503 22.7775 17.7452 22.5937 17.7909 22.4137C17.8364 22.2337 18.0153 22.1254 18.1906 22.1727C18.2546 22.1897 18.3342 22.2116 18.4273 22.2373C19.04 22.4062 20.3149 22.7575 21.5557 22.9252C23.3696 23.1703 24.1026 22.8962 24.3983 22.6229C24.529 22.502 24.6067 22.3471 24.6325 22.1543C24.633 22.1508 24.6333 22.1471 24.6337 22.1436C24.6377 22.1111 24.6401 22.0772 24.6412 22.0424C24.6414 22.0362 24.6418 22.0303 24.6419 22.0241C24.6425 21.9883 24.6412 21.9511 24.6389 21.913C24.6382 21.9026 24.6373 21.8919 24.6365 21.8814C24.6333 21.8436 24.6291 21.805 24.6231 21.7651C24.6228 21.7633 24.6227 21.7616 24.6224 21.7599C24.3752 20.1529 20.6453 19.1519 17.3999 18.8781C16.7991 18.8276 16.2149 18.8018 15.6726 18.8018C15.2813 18.8018 14.9291 18.8157 14.6259 18.8432C14.6243 18.8434 14.6228 18.8431 14.6212 18.8433C14.4179 18.8618 14.2388 18.8864 14.0888 18.9167C12.6059 19.2177 10.5534 20.4471 9.05474 21.3447C8.95407 21.405 8.8557 21.4639 8.75992 21.5211C8.7667 21.5292 8.7737 21.5383 8.78056 21.5467C8.80106 21.5718 8.82184 21.5974 8.8429 21.6238C8.85682 21.6414 8.87095 21.6594 8.88515 21.6775C8.90138 21.6983 8.91776 21.7194 8.93434 21.741C8.95106 21.7627 8.96785 21.7846 8.98485 21.8071C9.00486 21.8336 9.02508 21.8605 9.04544 21.888C9.05782 21.9045 9.07014 21.9212 9.08259 21.9381C9.10876 21.9736 9.13506 22.0099 9.16172 22.0469C9.17298 22.0626 9.18432 22.0785 9.19572 22.0945C9.22063 22.1293 9.24567 22.1647 9.271 22.2008C9.28149 22.2158 9.29213 22.2309 9.30269 22.2461C9.32886 22.2836 9.35524 22.3218 9.38175 22.3604C9.39134 22.3744 9.40085 22.3883 9.41058 22.4024C9.44122 22.4474 9.47215 22.4931 9.50321 22.5393C9.51223 22.5528 9.52126 22.5663 9.53035 22.5799C9.56282 22.6284 9.59542 22.6774 9.62823 22.7273C9.63341 22.7352 9.63866 22.7432 9.64384 22.7512C9.67574 22.7997 9.70771 22.8487 9.73983 22.8984C9.74535 22.9069 9.75088 22.9153 9.75641 22.9238C9.79111 22.9775 9.82588 23.0319 9.86079 23.0866C9.86751 23.0971 9.87415 23.1076 9.88087 23.1181C9.9162 23.1737 9.9516 23.2298 9.98715 23.2864C9.99148 23.2933 9.99575 23.3001 10.0001 23.307C10.0359 23.3642 10.0717 23.4218 10.1076 23.4797C10.1097 23.4831 10.1118 23.4865 10.1139 23.49C10.1504 23.5491 10.187 23.6087 10.2236 23.6686C10.2295 23.6782 10.2354 23.6879 10.2413 23.6976C10.2771 23.7563 10.3129 23.8152 10.3486 23.8745C10.3535 23.8827 10.3584 23.891 10.3634 23.8992C10.4371 24.0216 10.5105 24.1449 10.5832 24.2686C10.5892 24.2788 10.5952 24.2888 10.6011 24.299C10.6354 24.3575 10.6696 24.4158 10.7036 24.4742C10.7106 24.4864 10.7177 24.4986 10.7248 24.5107C10.7588 24.5694 10.7928 24.6281 10.8265 24.6865C10.8308 24.694 10.835 24.7013 10.8392 24.7088C10.8695 24.7613 10.8994 24.8139 10.9293 24.8662C10.9371 24.8801 10.9451 24.8939 10.9529 24.9078C10.9834 24.9614 11.0135 25.0148 11.0435 25.068C11.0537 25.0862 11.0639 25.1043 11.0741 25.1226C11.1028 25.1736 11.1313 25.2246 11.1595 25.2753C11.1701 25.2944 11.1805 25.3132 11.1911 25.3322C11.2118 25.3697 11.2323 25.4067 11.2527 25.4437C11.2661 25.4682 11.2795 25.4925 11.2929 25.5168C11.3157 25.5586 11.3384 25.6 11.3609 25.6413C11.3742 25.6658 11.3874 25.6901 11.4005 25.7144C11.4234 25.7567 11.4461 25.7988 11.4685 25.8405C11.4831 25.8675 11.4973 25.8941 11.5116 25.9208C11.524 25.9439 11.5362 25.967 11.5483 25.9899C11.5725 26.0354 11.5962 26.0802 11.6196 26.1247C11.6292 26.143 11.6388 26.1611 11.6482 26.1792C11.6985 26.2751 11.7469 26.3686 11.7933 26.4593C11.7991 26.4705 11.8047 26.4817 11.8104 26.4927C11.8374 26.5456 11.8636 26.5974 11.8891 26.6482C11.8932 26.6564 11.8974 26.6647 11.9015 26.673C11.9466 26.7631 11.9892 26.8498 12.0292 26.9324C12.0306 26.9357 12.0322 26.9387 12.0337 26.9419C12.0585 26.9932 12.0821 27.0428 12.1047 27.0909C12.1076 27.0973 12.1106 27.1036 12.1135 27.1099C12.1223 27.1287 12.1316 27.1481 12.14 27.1664C13.4339 26.6789 14.5772 26.4416 15.627 26.4416C16.8557 26.4416 17.8358 26.7641 18.7838 27.0759C19.7777 27.4029 20.8054 27.7411 22.1829 27.7411C22.4063 27.7411 22.6371 27.7321 22.8688 27.7143C24.0574 27.6238 26.7853 26.4131 29.3552 24.8354C32.453 22.9333 33.7957 21.4666 33.7519 20.8569Z" fill="#9AA2AB"/>
<path d="M16.1214 11.3524C16.6247 11.7441 17.2517 11.9427 17.9849 11.9427C17.985 11.9427 17.985 11.9427 17.985 11.9427C18.4952 11.9427 19.0546 11.8444 19.6495 11.6521L22.2942 14.0801V15.6908C22.2942 15.8767 22.4409 16.0274 22.622 16.0274C22.8031 16.0274 22.9499 15.8767 22.9499 15.6908V11.4729L25.3591 9.41094C25.3795 9.41992 25.4007 9.42754 25.4231 9.43207C25.8656 9.52217 26.2882 9.56787 26.6791 9.56787C27.6925 9.56787 28.4969 9.2709 29.07 8.68522C29.8652 7.8729 30.1181 6.58276 29.8014 4.95404C29.7754 4.82053 29.6738 4.7162 29.5436 4.68976C29.101 4.59965 28.6782 4.55396 28.2873 4.55396C27.2737 4.55396 26.4694 4.851 25.8968 5.43676C25.1692 6.17987 24.8969 7.32307 25.0979 8.75808L22.9499 10.5965V6.17348C22.9499 5.98752 22.8031 5.83677 22.622 5.83677C22.4409 5.83677 22.2942 5.98745 22.2942 6.17348V13.177L20.0616 11.1274C20.1236 9.55422 19.7035 8.36949 18.8389 7.69664C18.3354 7.30504 17.7086 7.10643 16.9758 7.10643C16.4128 7.10643 15.7906 7.22506 15.1267 7.45895C15.0012 7.50314 14.914 7.62069 14.9059 7.75671C14.8064 9.41367 15.2268 10.6571 16.1214 11.3524ZM26.2132 8.87125C26.2353 8.87333 26.257 8.87491 26.2789 8.87678C26.257 8.87498 26.2353 8.8734 26.2132 8.87125ZM29.1982 5.3095C29.3516 6.25575 29.3463 7.45306 28.6075 8.20789C28.1616 8.66344 27.5129 8.89453 26.679 8.89453C26.679 8.89453 26.6789 8.89453 26.6788 8.89453C27.5124 8.89445 28.1611 8.66337 28.607 8.20789C29.3459 7.45306 29.3512 6.25582 29.1977 5.3095C28.8769 5.25482 28.5713 5.2273 28.2868 5.2273C28.2869 5.2273 28.2871 5.2273 28.2872 5.2273C28.5717 5.2273 28.8774 5.25489 29.1982 5.3095ZM26.3397 5.93492C26.3164 5.95935 26.2939 5.98436 26.272 6.00965C26.2938 5.98429 26.3164 5.95935 26.3397 5.93492ZM26.2383 6.04953C26.2135 6.07971 26.1898 6.11039 26.167 6.14179C26.1898 6.11039 26.2136 6.07971 26.2383 6.04953ZM25.9823 6.44818C25.9696 6.47347 25.9576 6.49898 25.946 6.52463C25.9577 6.49891 25.9697 6.4734 25.9823 6.44818ZM25.8136 6.88965C25.8077 6.9102 25.8023 6.93075 25.797 6.9513C25.8023 6.93068 25.8077 6.91013 25.8136 6.88965ZM25.7727 7.05204C25.7681 7.07302 25.7635 7.094 25.7593 7.11513C25.7635 7.09407 25.7681 7.07309 25.7727 7.05204ZM25.7196 7.36022C25.7175 7.37711 25.7154 7.39399 25.7135 7.41102C25.7154 7.39399 25.7175 7.37711 25.7196 7.36022ZM25.701 7.54467C25.7 7.55782 25.6989 7.5709 25.6979 7.58405C25.6989 7.57097 25.7 7.55789 25.701 7.54467ZM25.6933 7.66582C25.6926 7.67926 25.6921 7.69269 25.6917 7.70613C25.6922 7.69269 25.6927 7.67926 25.6933 7.66582ZM25.6957 8.15364C25.6961 8.15996 25.6964 8.16636 25.6968 8.17268C25.6963 8.16628 25.696 8.15989 25.6957 8.15364ZM25.7012 8.24123L26.7089 7.37876C26.7785 7.31912 26.8649 7.29419 26.9485 7.30202C26.8651 7.2944 26.7789 7.31934 26.7095 7.37876L25.7012 8.24173C25.7012 8.24151 25.7012 8.24137 25.7012 8.24123ZM17.985 11.2694C17.9849 11.2694 17.9849 11.2694 17.9849 11.2694C17.9856 11.2694 17.9864 11.2693 17.9871 11.2693C17.9865 11.2693 17.9858 11.2694 17.9851 11.2694H17.985ZM18.94 11.1521C18.9831 11.1423 19.0264 11.1319 19.0701 11.1208L18.0665 10.1994C17.9315 10.0755 17.9199 9.86262 18.0405 9.72401C18.1009 9.6546 18.1831 9.61695 18.267 9.61221C18.1833 9.61709 18.1013 9.65467 18.0411 9.72401C17.9204 9.86262 17.932 10.0755 18.067 10.1994L19.0707 11.1208C19.0267 11.132 18.9833 11.1421 18.94 11.1521ZM18.1317 11.2659C18.15 11.2651 18.1684 11.264 18.1868 11.2629C18.1684 11.264 18.1499 11.2652 18.1317 11.2659ZM18.2804 11.2565C18.3035 11.2547 18.3265 11.2527 18.3498 11.2504C18.3265 11.2527 18.3034 11.2547 18.2804 11.2565ZM18.4283 11.2416C18.5374 11.2287 18.6488 11.2115 18.7625 11.1895C18.6489 11.2114 18.5374 11.2288 18.4283 11.2416ZM18.793 11.1837C18.8338 11.1755 18.8748 11.1668 18.9162 11.1575C18.8748 11.1668 18.8338 11.1755 18.793 11.1837ZM19.4057 10.5253L19.405 10.5247C19.3685 9.78847 19.1889 9.00051 18.6827 8.4542C19.1894 9.00066 19.3692 9.78868 19.4057 10.5253ZM18.6794 8.45061C18.6443 8.41289 18.6076 8.37631 18.5692 8.34103C18.6076 8.37631 18.6442 8.41289 18.6794 8.45061ZM18.443 8.2334C18.4849 8.26595 18.5246 8.30029 18.5632 8.33543C18.5245 8.30022 18.4844 8.26602 18.4425 8.2334C18.0556 7.93247 17.562 7.77978 16.9754 7.77978C16.9755 7.77978 16.9756 7.77978 16.9757 7.77978C17.5624 7.77978 18.0561 7.9324 18.443 8.2334Z" fill="#9AA2AB"/>
</svg>
