<svg width="38" height="37" viewBox="0 0 38 37" fill="none" xmlns="http://www.w3.org/2000/svg">
<path d="M29.925 7.62705V10.0433C29.925 14.7138 26.0336 18.5 21.2333 18.5H19.9917V19.7081H26.2V28.1649C26.2 29.4998 25.0887 30.5811 23.7167 30.5811H13.7833C12.4113 30.5811 11.3 29.4998 11.3 28.1649V19.7081H17.5083V16.0838C17.5083 11.4133 21.3997 7.62705 26.2 7.62705H29.925ZM10.6792 6.41895C13.8194 6.41895 16.5957 7.93029 18.2831 10.2474C17.0166 11.8675 16.2667 13.8911 16.2667 16.0838V17.2919H15.6458C10.5029 17.2919 6.33334 13.2351 6.33334 8.23111V6.41895H10.6792Z" fill="#9AA2AB"/>
</svg>
