<svg width="37" height="37" viewBox="0 0 37 37" fill="none" xmlns="http://www.w3.org/2000/svg">
<path d="M18.5 4.625C18.5 4.625 8.96326 12.8575 3.63372 17.316C3.32076 17.5997 3.08334 18.0128 3.08334 18.5C3.08334 19.3525 3.77247 20.0417 4.62501 20.0417H7.70834V30.8333C7.70834 31.6859 8.39747 32.375 9.25001 32.375H13.875C14.7276 32.375 15.4167 31.6843 15.4167 30.8333V24.6667H21.5833V30.8333C21.5833 31.6843 22.2725 32.375 23.125 32.375H27.75C28.6026 32.375 29.2917 31.6859 29.2917 30.8333V20.0417H32.375C33.2276 20.0417 33.9167 19.3525 33.9167 18.5C33.9167 18.0128 33.6793 17.5997 33.3262 17.316C28.0337 12.8575 18.5 4.625 18.5 4.625Z" fill="#FC8019"/>
</svg>
