<svg width="37" height="37" viewBox="0 0 37 37" fill="none" xmlns="http://www.w3.org/2000/svg">
<path d="M18.5002 4.625C18.5002 4.625 8.96341 12.8575 3.63387 17.316C3.32091 17.5997 3.0835 18.0128 3.0835 18.5C3.0835 19.3525 3.77262 20.0417 4.62516 20.0417H7.7085V30.8333C7.7085 31.6859 8.39762 32.375 9.25016 32.375H13.8752C14.7277 32.375 15.4168 31.6843 15.4168 30.8333V24.6667H21.5835V30.8333C21.5835 31.6843 22.2726 32.375 23.1252 32.375H27.7502C28.6027 32.375 29.2918 31.6859 29.2918 30.8333V20.0417H32.3752C33.2277 20.0417 33.9168 19.3525 33.9168 18.5C33.9168 18.0128 33.6794 17.5997 33.3264 17.316C28.0338 12.8575 18.5002 4.625 18.5002 4.625Z" fill="#9AA2AB"/>
</svg>
