<svg width="25" height="25" viewBox="0 0 25 25" fill="none" xmlns="http://www.w3.org/2000/svg">
<g id="Frame">
<g id="Language_Setting">
<path id="Vector" d="M19.595 10.7167H15.7086C15.7418 10.5023 15.7585 10.2857 15.7585 10.0687V5.91409C15.7572 4.79669 15.3128 3.72541 14.5227 2.93529C13.7326 2.14517 12.6613 1.70073 11.5439 1.69946H5.40505C4.28765 1.70073 3.21638 2.14517 2.42626 2.9353C1.63614 3.72542 1.19169 4.79669 1.19043 5.91409V10.0687C1.19169 11.1861 1.63614 12.2573 2.42626 13.0474C3.21638 13.8376 4.28765 14.282 5.40505 14.2833H9.29245C9.25874 14.4976 9.24173 14.7143 9.24157 14.9313V19.0859C9.24284 20.2033 9.68728 21.2746 10.4774 22.0647C11.2675 22.8548 12.3388 23.2993 13.4562 23.3005H19.5951C20.7125 23.2993 21.7837 22.8548 22.5738 22.0647C23.364 21.2746 23.8084 20.2033 23.8097 19.0859V14.9313C23.8084 13.8139 23.364 12.7427 22.5738 11.9525C21.7837 11.1624 20.7124 10.718 19.595 10.7167ZM2.09878 10.0687V5.91409C2.09977 5.03751 2.44842 4.19713 3.06826 3.5773C3.68809 2.95747 4.52847 2.60882 5.40505 2.60784H11.5439C12.4205 2.60882 13.2608 2.95748 13.8807 3.57731C14.5005 4.19713 14.8491 5.03752 14.8501 5.91409V10.0687C14.8491 10.9452 14.5005 11.7856 13.8807 12.4054C13.2608 13.0253 12.4205 13.3739 11.5439 13.3749H5.40505C4.52848 13.3739 3.68809 13.0253 3.06826 12.4054C2.44842 11.7856 2.09977 10.9452 2.09878 10.0687ZM19.9357 15.9523H18.8286C18.5265 17.0309 17.9647 18.0191 17.1922 18.8302C17.5794 19.1398 17.9981 19.4077 18.4414 19.6296L19.0593 19.9399C19.1126 19.9666 19.1601 20.0036 19.1991 20.0488C19.2381 20.0939 19.2678 20.1463 19.2866 20.2029C19.3054 20.2595 19.3128 20.3193 19.3085 20.3787C19.3041 20.4382 19.2881 20.4963 19.2614 20.5496C19.2346 20.6029 19.1976 20.6504 19.1525 20.6894C19.1073 20.7284 19.055 20.7581 18.9983 20.7769C18.9417 20.7957 18.882 20.8031 18.8225 20.7988C18.763 20.7944 18.7049 20.7784 18.6516 20.7517L18.0337 20.4414C17.4948 20.1721 16.9881 19.8424 16.5235 19.4588C16.0605 19.8425 15.5552 20.1721 15.0174 20.4414L14.3996 20.7516C14.2919 20.8057 14.1672 20.8148 14.0528 20.7769C13.9385 20.739 13.8439 20.6572 13.7898 20.5496C13.7358 20.4419 13.7267 20.3172 13.7646 20.2029C13.8025 20.0885 13.8843 19.9939 13.9919 19.9398L14.6098 19.6296C15.052 19.408 15.4696 19.1404 15.8556 18.8311C15.3981 18.3461 15.012 17.7986 14.7086 17.2049C14.6815 17.1518 14.6652 17.0938 14.6605 17.0344C14.6558 16.9749 14.6629 16.9151 14.6813 16.8584C14.6998 16.8017 14.7292 16.7491 14.7679 16.7038C14.8067 16.6584 14.8539 16.6211 14.9071 16.594C14.9602 16.567 15.0182 16.5506 15.0776 16.5459C15.1371 16.5413 15.1969 16.5483 15.2536 16.5668C15.3104 16.5852 15.3629 16.6146 15.4083 16.6533C15.4536 16.6921 15.4909 16.7394 15.518 16.7925C15.7838 17.3123 16.1224 17.7914 16.5237 18.2154C17.1385 17.5713 17.602 16.7982 17.8803 15.9523H13.1155C12.995 15.9523 12.8795 15.9045 12.7943 15.8193C12.7092 15.7341 12.6613 15.6186 12.6613 15.4981C12.6613 15.3777 12.7092 15.2622 12.7943 15.177C12.8795 15.0918 12.995 15.044 13.1155 15.044H16.0714V13.6715C16.0714 13.551 16.1193 13.4355 16.2045 13.3503C16.2896 13.2652 16.4052 13.2173 16.5256 13.2173C16.6461 13.2173 16.7616 13.2652 16.8468 13.3503C16.932 13.4355 16.9798 13.551 16.9798 13.6715V15.044H19.9357C20.0561 15.044 20.1717 15.0918 20.2568 15.177C20.342 15.2622 20.3899 15.3777 20.3899 15.4981C20.3899 15.6186 20.342 15.7341 20.2568 15.8193C20.1717 15.9045 20.0561 15.9523 19.9357 15.9523Z" fill="#FC9C4C"/>
<path id="Vector_2" d="M9.28743 5.55128C9.13912 5.18444 8.82775 4.95654 8.47483 4.95654C8.12191 4.95654 7.81052 5.18444 7.66221 5.55131L5.70156 10.4015C5.67921 10.4568 5.66796 10.516 5.66847 10.5756C5.66898 10.6353 5.68124 10.6942 5.70453 10.7492C5.72783 10.8041 5.76171 10.8538 5.80425 10.8957C5.84678 10.9375 5.89714 10.9705 5.95244 10.9928C6.00773 11.0152 6.06689 11.0264 6.12654 11.0259C6.18618 11.0254 6.24514 11.0132 6.30004 10.9899C6.35495 10.9666 6.40473 10.9327 6.44654 10.8902C6.48836 10.8476 6.52138 10.7973 6.54373 10.742L7.2788 8.92358H9.67085L10.4059 10.742C10.4281 10.7974 10.4611 10.848 10.5029 10.8907C10.5447 10.9334 10.5945 10.9674 10.6495 10.9908C10.7045 11.0143 10.7635 11.0266 10.8233 11.0272C10.883 11.0277 10.9423 11.0165 10.9977 10.9941C11.0531 10.9717 11.1035 10.9386 11.1461 10.8967C11.1887 10.8547 11.2226 10.8048 11.2459 10.7498C11.2691 10.6947 11.2813 10.6356 11.2817 10.5759C11.282 10.5161 11.2706 10.4569 11.2481 10.4015L9.28743 5.55128ZM7.646 8.01521L8.47483 5.96485L9.30366 8.01521H7.646Z" fill="#FC9C4C"/>
</g>
</g>
</svg>
