<svg width="31" height="31" viewBox="0 0 31 31" fill="none" xmlns="http://www.w3.org/2000/svg">
<path d="M5.16665 23.25H7.74998V28.5213L14.3388 23.25H20.6666C22.0914 23.25 23.25 22.0914 23.25 20.6667V10.3333C23.25 8.90863 22.0914 7.75 20.6666 7.75H5.16665C3.74194 7.75 2.58331 8.90863 2.58331 10.3333V20.6667C2.58331 22.0914 3.74194 23.25 5.16665 23.25Z" fill="#9AA2AB"/>
<path d="M25.8333 2.58325H10.3333C8.90862 2.58325 7.75 3.74188 7.75 5.16659H23.25C24.6747 5.16659 25.8333 6.32521 25.8333 7.74992V18.0833C27.258 18.0833 28.4167 16.9246 28.4167 15.4999V5.16659C28.4167 3.74188 27.258 2.58325 25.8333 2.58325Z" fill="#9AA2AB"/>
</svg>
