<svg width="18" height="20" viewBox="0 0 18 20" fill="none" xmlns="http://www.w3.org/2000/svg">
<g id="Page-1">
<g id="Artboard-Copy">
<path id="bell" fill-rule="evenodd" clip-rule="evenodd" d="M8.39412 0H9.30011C13.0296 0 15.67 3.07503 15.67 6.81761V11.8946L17.6146 15.2094C17.6705 15.3046 17.6999 15.4131 17.6999 15.5236C17.6999 15.8665 17.4219 16.1445 17.079 16.1445H0.621072C0.50995 16.1445 0.400858 16.1147 0.305188 16.0582C0.00992429 15.8837 -0.0880131 15.503 0.0864428 15.2077L2.02672 11.9238V6.76793C2.02672 3.02411 4.66583 0 8.39412 0ZM5.7426 16.7661H11.9523C11.9523 18.1372 10.5625 19.25 8.84744 19.25C7.13294 19.25 5.7426 18.1372 5.7426 16.7661Z" fill="#FC9C4C"/>
</g>
</g>
</svg>
