<svg width="23" height="23" viewBox="0 0 23 23" fill="none" xmlns="http://www.w3.org/2000/svg">
<g id="Icons">
<path id="Vector" d="M20.9165 8.97759L20.1249 3.83325C14.3749 3.83325 11.4999 0.958252 11.4999 0.958252C11.4999 0.958252 8.62495 3.83325 2.87495 3.83325L2.08336 8.97759C1.75326 11.1204 2.09189 13.3129 3.05311 15.2563C4.01434 17.1996 5.55139 18.7993 7.45482 19.8374L11.4999 22.0416L15.5451 19.8374C17.4485 18.7993 18.9856 17.1996 19.9468 15.2563C20.908 13.3129 21.2466 11.1204 20.9165 8.97759ZM16.0108 9.30246L10.2608 15.0525C10.0811 15.2321 9.83739 15.333 9.58328 15.333C9.32916 15.333 9.08545 15.2321 8.90574 15.0525L6.98907 13.1358C6.89754 13.0474 6.82453 12.9416 6.77431 12.8247C6.72408 12.7078 6.69764 12.5821 6.69654 12.4548C6.69543 12.3276 6.71968 12.2014 6.76787 12.0836C6.81605 11.9658 6.88721 11.8588 6.97719 11.7688C7.06717 11.6789 7.17417 11.6077 7.29195 11.5595C7.40972 11.5113 7.53592 11.4871 7.66316 11.4882C7.79041 11.4893 7.91616 11.5157 8.03308 11.5659C8.15 11.6162 8.25575 11.6892 8.34415 11.7807L9.58328 13.0198L14.6557 7.94738C14.8365 7.77281 15.0786 7.67621 15.3298 7.6784C15.5811 7.68058 15.8215 7.78137 15.9991 7.95905C16.1768 8.13673 16.2776 8.3771 16.2798 8.62837C16.282 8.87964 16.1854 9.12172 16.0108 9.30246Z" fill="#FC9C4C"/>
</g>
</svg>
