<svg width="22" height="22" viewBox="0 0 22 22" fill="none" xmlns="http://www.w3.org/2000/svg">
<path d="M11 0.166748C5.01457 0.166748 0.166656 5.01466 0.166656 11.0001C0.166656 16.9855 5.01457 21.8334 11 21.8334C16.9854 21.8334 21.8333 16.9855 21.8333 11.0001C21.8333 5.01466 16.9854 0.166748 11 0.166748ZM11 3.41675C12.7929 3.41675 14.25 4.87383 14.25 6.66675C14.25 8.46508 12.7929 9.91675 11 9.91675C9.20707 9.91675 7.74999 8.46508 7.74999 6.66675C7.74999 4.87383 9.20707 3.41675 11 3.41675ZM11 18.8001C8.28624 18.8001 5.90291 17.4134 4.49999 15.3117C4.52707 13.1613 8.83874 11.9751 11 11.9751C13.1612 11.9751 17.4675 13.1613 17.5 15.3117C16.0971 17.4134 13.7137 18.8001 11 18.8001Z" fill="#FC9C4C"/>
</svg>
