<svg width="41" height="39" viewBox="0 0 41 39" fill="none" xmlns="http://www.w3.org/2000/svg">
<g id="Frame">
<g id="Page-1">
<g id="Core">
<g id="settings">
<path id="Shape" fill-rule="evenodd" clip-rule="evenodd" d="M32.8398 21.6C32.8398 21.12 32.9998 20.64 32.9998 20C32.9998 19.36 32.9998 18.88 32.8398 18.4L36.1998 15.68C36.5198 15.36 36.5198 15.04 36.3598 14.72L33.1598 9.12C32.9998 8.96 32.6798 8.8 32.1998 8.96L28.1998 10.56C27.3998 9.92 26.4398 9.44 25.4798 8.96L24.8398 4.8C24.9998 4.32 24.5198 4 24.1998 4H17.7998C17.4798 4 16.9998 4.32 16.9998 4.64L16.3598 8.96C15.3998 9.28 14.5998 9.92 13.6398 10.56L9.79976 8.96C9.31976 8.8 8.99976 8.96 8.67976 9.28L5.47976 14.88C5.31976 15.04 5.47976 15.52 5.79976 15.84L9.15976 18.4C9.15976 18.88 8.99976 19.36 8.99976 20C8.99976 20.64 8.99976 21.12 9.15976 21.6L5.79976 24.32C5.47976 24.64 5.47976 24.96 5.63976 25.28L8.83976 30.88C8.99976 31.04 9.31976 31.2 9.79976 31.04L13.7998 29.44C14.5998 30.08 15.5598 30.56 16.5198 31.04L17.1598 35.2C17.1598 35.52 17.4798 35.84 17.9598 35.84H24.3598C24.6798 35.84 25.1598 35.52 25.1598 35.2L25.7998 31.04C26.7598 30.56 27.7198 30.08 28.5198 29.44L32.5198 31.04C32.8398 31.2 33.3198 31.04 33.4798 30.72L36.6798 25.12C36.8398 24.8 36.8398 24.32 36.5198 24.16L32.8398 21.6ZM20.9998 25.6C17.9598 25.6 15.3998 23.04 15.3998 20C15.3998 16.96 17.9598 14.4 20.9998 14.4C24.0398 14.4 26.5998 16.96 26.5998 20C26.5998 23.04 24.0398 25.6 20.9998 25.6Z" fill="#FC8019"/>
</g>
</g>
</g>
</g>
</svg>
